<?xml version="1.0" encoding="UTF-8"?>
<svg id="Layer_1" data-name="Layer 1" xmlns="http://www.w3.org/2000/svg" viewBox="0 0 218.29 261.54">
  <defs>
    <style>
      .cls-1 {
        stroke-dasharray: 3.96 2.97;
      }

      .cls-1, .cls-2, .cls-3, .cls-4, .cls-5, .cls-6, .cls-7, .cls-8, .cls-9, .cls-10 {
        stroke-miterlimit: 10;
      }

      .cls-1, .cls-2, .cls-3, .cls-5, .cls-6, .cls-7, .cls-9, .cls-10 {
        fill: none;
      }

      .cls-1, .cls-2, .cls-4, .cls-9 {
        stroke-width: .75px;
      }

      .cls-1, .cls-2, .cls-9 {
        stroke: #69c;
      }

      .cls-2 {
        stroke-dasharray: 4.42 3.31;
      }

      .cls-11 {
        fill: #69c;
      }

      .cls-3 {
        stroke-dasharray: 4.09 3.07;
      }

      .cls-3, .cls-5, .cls-6, .cls-7, .cls-8 {
        stroke: #231f20;
      }

      .cls-4 {
        fill: #808285;
      }

      .cls-4, .cls-10 {
        stroke: #504d4d;
      }

      .cls-5 {
        stroke-dasharray: 4.02 3.02;
      }

      .cls-12 {
        fill: #504d4d;
      }

      .cls-6 {
        stroke-dasharray: 4.01 3.01;
      }

      .cls-13 {
        fill: #cce1f1;
      }

      .cls-8 {
        fill: #f9babd;
      }

      .cls-10 {
        stroke-width: .5px;
      }

      .cls-14 {
        fill: #414042;
      }
    </style>
  </defs>
  <ellipse class="cls-13" cx="110.09" cy="104.5" rx="103.55" ry="14.83"/>
  <path class="cls-8" d="M213.45,104.88c-.45,4.91-17.54,9.28-42.43,12.02-17.27,1.9-38.72,3.03-61.94,3.03s-44.67-1.13-61.94-3.03c-25.26-2.78-39.53-8.17-42.15-12.39-.29-.47-4.11,17.44-4.21,27.98,0,.13-.01.07-.02.2.21,10.39,48.5,18.58,108.32,18.58s106.46-8.72,108.7-18.19c-.35-8.26-1.41-19-4.32-28.19Z"/>
  <path class="cls-7" d="M217.79,134.96c0,60-48.64,108.65-108.65,108.65S.5,194.97.5,134.96c0-3.66.89-17.51,5.31-33.64C16.5,62.23,59.2,26.13,109.15,26.32c55.88.21,108.65,46.82,108.65,108.65Z"/>
  <ellipse class="cls-4" cx="109.15" cy="30.24" rx="3.5" ry="1.31"/>
  <g>
    <line class="cls-9" x1="109.15" y1="261.54" x2="109.15" y2="259.54"/>
    <line class="cls-1" x1="109.15" y1="256.57" x2="109.15" y2="8.78"/>
    <line class="cls-9" x1="109.15" y1="7.3" x2="109.15" y2="5.3"/>
    <polygon class="cls-11" points="109.15 0 112.19 7.46 109.15 5.69 106.1 7.46 109.15 0"/>
  </g>
  <ellipse class="cls-14" cx="109.15" cy="105.25" rx="2.4" ry=".75"/>
  <ellipse class="cls-14" cx="109.15" cy="135.81" rx="2.4" ry=".75"/>
  <g>
    <g>
      <path class="cls-7" d="M109.15,113.7c.67,0,1.34,0,2,0"/>
      <path class="cls-6" d="M114.16,113.72c51.34.39,93.35,6.75,101.74,15.02"/>
      <path class="cls-7" d="M216.85,129.9c.38.62.58,1.25.58,1.88"/>
    </g>
    <g>
      <path class="cls-7" d="M109.15,113.7c-.67,0-1.34,0-2,0"/>
      <path class="cls-6" d="M104.13,113.72c-51.34.39-93.35,6.75-101.74,15.02"/>
      <path class="cls-7" d="M1.44,129.9c-.38.62-.58,1.25-.58,1.88"/>
    </g>
  </g>
  <circle class="cls-4" cx="96.19" cy="135.06" r="3.5"/>
  <path class="cls-4" d="M58.06,102.17c.21,1.51-.68,2.99-2.5,3.55s-3.76-.4-4.06-1.55c-.41-1.58.18-3.29,2.06-4.02s4.22.09,4.49,2.02Z"/>
  <g>
    <path class="cls-7" d="M109.13,89.68c-.66,0-1.33,0-2,0"/>
    <path class="cls-5" d="M104.12,89.69c-33.73.19-78.96,2.42-95.48,12.57"/>
    <path class="cls-7" d="M7.38,103.09c-.57.4-1.09.81-1.57,1.24"/>
  </g>
  <g>
    <path class="cls-7" d="M109.13,89.68c.66,0,1.32,0,2,0"/>
    <path class="cls-3" d="M114.2,89.69c32.87.14,83.53,1.75,97.03,12.26"/>
    <path class="cls-7" d="M212.38,102.95c.5.5.92,1.01,1.26,1.55"/>
  </g>
  <g>
    <path class="cls-10" d="M55.68,97.81c3.33-16.93,14.94-50.25,51.97-66.26"/>
    <path class="cls-12" d="M55.29,99.88c.57-.9,1.44-1.97,2.25-2.58l-1.75.24-1.5-.93c.49.89.85,2.22,1.01,3.27Z"/>
  </g>
  <g>
    <path class="cls-10" d="M57.53,107.35c8.73,10.36,19.81,17.25,33.41,26.52"/>
    <path class="cls-12" d="M56.2,105.71c.37.99.69,2.34.69,3.35l.87-1.54,1.65-.63c-1-.15-2.28-.67-3.21-1.18Z"/>
    <path class="cls-12" d="M92.69,135.06c-1.03-.25-2.4-.42-3.41-.3l1.43-1.04.44-1.72c.26.98.93,2.19,1.54,3.06Z"/>
  </g>
  <g>
    <path class="cls-10" d="M96.16,129.45c-.3-25.42.82-59.07,12.99-97.9"/>
    <path class="cls-12" d="M96.19,131.56c.37-.99,1.01-2.22,1.68-2.98l-1.67.59-1.66-.61c.66.77,1.29,2,1.65,3Z"/>
  </g>
  <g>
    <path class="cls-9" d="M58.09,103.71c.68.12,1.33.24,1.97.34"/>
    <path class="cls-2" d="M63.34,104.53c3.72.48,6.89.66,10.44.91,6.04.42,6.32.55,18.75.56"/>
    <path class="cls-9" d="M94.18,106c.64,0,1.31,0,2,0"/>
  </g>
</svg>